<svg width="118" height="28" viewBox="0 0 118 28" fill="none" xmlns="http://www.w3.org/2000/svg">
<path d="M29.5482 1.13525C31.5197 1.13525 33.4079 1.13525 35.3666 1.13525C35.3666 3.69563 35.3666 6.21761 35.3666 8.61156C36.9541 8.33632 38.4839 7.87545 40.0201 7.83704C44.2959 7.73463 47.7525 9.43728 49.884 13.2202C52.4316 17.7329 50.9593 23.1801 46.5875 26.0925C41.0827 29.7539 33.6 27.936 30.5019 22.1752C29.7658 20.8054 29.497 19.3075 29.4906 17.7713C29.4714 12.4585 29.4842 7.14574 29.4842 1.83296C29.4842 1.60892 29.5226 1.38489 29.5482 1.13525ZM45.1985 17.9889C45.2881 15.467 43.0926 13.2138 40.4554 13.1242C37.9014 13.0346 35.4754 15.1725 35.3858 17.5921C35.2834 20.3125 37.4085 22.5592 40.1801 22.6552C42.8109 22.7384 45.1025 20.6133 45.1985 17.9889Z" fill="white"/>
<path d="M89.9988 8.85474C89.9988 6.21115 89.9988 3.68918 89.9988 1.1416C91.9703 1.1416 93.8586 1.1416 95.7661 1.1416C95.8045 1.27602 95.8557 1.37204 95.8557 1.46805C95.8557 7.04967 95.9069 12.6313 95.8301 18.2129C95.7789 21.9575 93.8202 24.6395 90.6645 26.5021C85.6142 29.4786 78.7972 27.8399 75.6991 22.924C72.3834 17.6624 75.0974 10.4934 81.1719 8.45788C84.0971 7.47854 86.984 7.59375 89.9988 8.85474ZM85.0893 13.1178C82.4969 13.1114 80.1222 15.3645 80.1414 17.8097C80.1606 20.4597 82.4265 22.668 85.1021 22.6488C87.7649 22.6296 89.9604 20.4725 89.9988 17.8353C90.0372 15.3837 87.6817 13.1242 85.0893 13.1178Z" fill="white"/>
<path d="M63.2749 7.75391C66.7826 7.89473 70.1623 9.43736 72.2362 13.1179C74.6686 17.4321 73.5612 22.4569 69.6503 25.6061C64.3439 29.8692 56.1955 28.2433 52.963 22.2777C50.5114 17.7586 52.3037 11.9273 56.9444 9.27733C58.7174 8.25958 60.6249 7.76031 63.2749 7.75391ZM62.7116 22.6297C65.4256 22.6041 67.6148 20.4278 67.6084 17.7586C67.602 15.2622 65.2976 13.0859 62.6668 13.0923C60.0424 13.0987 57.7701 15.2878 57.7829 17.8034C57.7957 20.479 60.0168 22.6553 62.7116 22.6297Z" fill="white"/>
<path d="M117.222 18.5075C112.313 18.5075 107.378 18.5075 102.366 18.5075C102.654 20.287 103.614 21.4199 105.073 22.1561C106.731 22.9882 108.222 22.6809 110.565 21.0743C111.589 22.5337 112.607 23.9931 113.625 25.4461C110.956 28.1217 105.265 29.0755 100.874 25.9774C96.8352 23.129 95.5038 17.701 97.8081 13.2139C100.119 8.72047 105.688 6.64656 110.68 8.43882C115.897 10.3143 117.773 15.3582 117.222 18.5075ZM110.469 14.8398C108.728 12.305 104.638 12.8107 103.633 14.8398C105.899 14.8398 108.171 14.8398 110.469 14.8398Z" fill="white"/>
<path d="M14.4679 18.7507C11.4211 18.7507 8.3806 18.7571 5.33375 18.7507C4.19439 18.7507 3.88714 18.2258 4.43122 17.2336C5.28255 15.691 6.16588 14.1676 7.0044 12.6185C7.28604 12.1001 7.6637 11.9272 8.23338 11.9272C12.426 11.94 16.6186 11.94 20.8112 11.9272C21.3873 11.9272 21.7522 12.1193 22.0338 12.6314C22.8659 14.1548 23.7301 15.659 24.575 17.1696C25.1511 18.2066 24.8438 18.7507 23.6789 18.7507C20.6128 18.7571 17.5404 18.7507 14.4679 18.7507Z" fill="#F26B35"/>
<path d="M14.4741 10.9416C12.8739 10.9416 11.2672 10.948 9.66701 10.9416C8.51484 10.9352 8.19479 10.4103 8.74527 9.431C10.3839 6.52497 12.029 3.61894 13.6804 0.725709C14.2309 -0.240834 14.807 -0.240834 15.3574 0.719308C17.0089 3.61894 18.6539 6.51857 20.2926 9.4246C20.8367 10.3911 20.4974 10.9352 19.3644 10.9416C17.7322 10.948 16.1 10.9416 14.4741 10.9416Z" fill="#CAF9FF"/>
<path d="M0.603285 27.8722C0.462464 27.8722 0.328044 27.821 0.212827 27.725C-0.00480494 27.5394 -0.0624134 27.2449 0.0720064 26.9889L3.36209 20.7672C3.62453 20.2743 4.13661 19.967 4.69349 19.967H9.475C9.75024 19.967 9.98707 20.1335 10.0703 20.3959C10.1599 20.6583 10.0703 20.9336 9.85265 21.1L0.961738 27.7506C0.852922 27.8338 0.731304 27.8722 0.603285 27.8722ZM4.69989 20.4727C4.32864 20.4727 3.98939 20.6775 3.81656 21.004L0.526474 27.2257C0.50087 27.2769 0.520073 27.3153 0.545676 27.3345C0.57128 27.3537 0.609686 27.3729 0.654492 27.3409L9.54541 20.6903C9.60301 20.6455 9.59661 20.5879 9.58381 20.5623C9.57101 20.5303 9.54541 20.4791 9.475 20.4791H4.69989V20.4727Z" fill="#CAF9FF"/>
<path d="M28.9404 27.872C28.8123 27.872 28.6907 27.8336 28.5819 27.7504L19.691 21.0934C19.4734 20.927 19.3837 20.6518 19.4734 20.3893C19.563 20.1269 19.7934 19.9604 20.0686 19.9604H24.8502C25.4134 19.9604 25.9191 20.2677 26.1815 20.7606L29.4716 26.9823C29.6061 27.2383 29.5484 27.5328 29.3308 27.7184C29.2156 27.8208 29.0812 27.872 28.9404 27.872ZM20.0622 20.4725C19.9918 20.4725 19.9598 20.5237 19.9534 20.5557C19.9406 20.5877 19.9342 20.6454 19.9918 20.6838L28.8827 27.3343C28.9276 27.3663 28.966 27.3535 28.9916 27.3279C29.0172 27.3087 29.0364 27.2703 29.0108 27.2191L25.7207 20.9974C25.5479 20.671 25.2086 20.4661 24.8373 20.4661H20.0622V20.4725Z" fill="#CAF9FF"/>
</svg>
