<svg width="118" height="28" viewBox="0 0 118 28" fill="none" xmlns="http://www.w3.org/2000/svg">
<path d="M29.5482 1.13574C31.5197 1.13574 33.4079 1.13574 35.3666 1.13574C35.3666 3.69612 35.3666 6.21809 35.3666 8.61205C36.9541 8.33681 38.4839 7.87594 40.0201 7.83753C44.2959 7.73512 47.7525 9.43777 49.884 13.2207C52.4316 17.7334 50.9593 23.1806 46.5875 26.093C41.0827 29.7544 33.6 27.9365 30.5019 22.1757C29.7658 20.8059 29.497 19.308 29.4906 17.7718C29.4714 12.459 29.4842 7.14623 29.4842 1.83345C29.4842 1.60941 29.5226 1.38538 29.5482 1.13574ZM45.1985 17.9894C45.2881 15.4675 43.0926 13.2143 40.4554 13.1247C37.9014 13.0351 35.4754 15.173 35.3858 17.5926C35.2834 20.313 37.4085 22.5597 40.1801 22.6557C42.8109 22.7389 45.1025 20.6138 45.1985 17.9894Z" fill="#0593A5"/>
<path d="M89.9989 8.85572C89.9989 6.21213 89.9989 3.69015 89.9989 1.14258C91.9704 1.14258 93.8587 1.14258 95.7662 1.14258C95.8046 1.277 95.8558 1.37301 95.8558 1.46903C95.8558 7.05065 95.907 12.6323 95.8302 18.2139C95.779 21.9585 93.8203 24.6405 90.6646 26.5031C85.6143 29.4796 78.7973 27.8409 75.6992 22.925C72.3835 17.6634 75.0975 10.4944 81.172 8.45886C84.0973 7.47951 86.9841 7.59473 89.9989 8.85572ZM85.0894 13.1187C82.497 13.1123 80.1223 15.3655 80.1415 17.8106C80.1607 20.4606 82.4266 22.669 85.1022 22.6498C87.765 22.6306 89.9605 20.4734 89.9989 17.8362C90.0373 15.3847 87.6818 13.1251 85.0894 13.1187Z" fill="#0593A5"/>
<path d="M63.2751 7.75391C66.7828 7.89473 70.1625 9.43736 72.2364 13.1179C74.6688 17.4321 73.5614 22.4569 69.6504 25.6061C64.3441 29.8692 56.1957 28.2433 52.9632 22.2777C50.5116 17.7586 52.3039 11.9273 56.9446 9.27733C58.7176 8.25958 60.6251 7.76031 63.2751 7.75391ZM62.7118 22.6297C65.4258 22.6041 67.6149 20.4278 67.6085 17.7586C67.6021 15.2622 65.2978 13.0859 62.667 13.0923C60.0426 13.0987 57.7703 15.2878 57.7831 17.8034C57.7959 20.479 60.017 22.6553 62.7118 22.6297Z" fill="#0593A5"/>
<path d="M117.222 18.508C112.313 18.508 107.377 18.508 102.365 18.508C102.654 20.2875 103.614 21.4204 105.073 22.1565C106.731 22.9887 108.222 22.6814 110.565 21.0748C111.589 22.5342 112.607 23.9936 113.625 25.4466C110.956 28.1222 105.265 29.076 100.874 25.9779C96.8351 23.1295 95.5037 17.7015 97.808 13.2144C100.119 8.72096 105.688 6.64705 110.68 8.43931C115.897 10.3148 117.773 15.3587 117.222 18.508ZM110.469 14.8403C108.728 12.3055 104.638 12.8112 103.633 14.8403C105.899 14.8403 108.171 14.8403 110.469 14.8403Z" fill="#0593A5"/>
<path d="M14.468 18.7511C11.4212 18.7511 8.38073 18.7575 5.33388 18.7511C4.19451 18.7511 3.88726 18.2263 4.43134 17.2341C5.28267 15.6915 6.166 14.1681 7.00452 12.619C7.28616 12.1006 7.66382 11.9277 8.2335 11.9277C12.4261 11.9405 16.6187 11.9405 20.8114 11.9277C21.3875 11.9277 21.7523 12.1198 22.0339 12.6318C22.8661 14.1553 23.7302 15.6595 24.5751 17.1701C25.1512 18.2071 24.844 18.7511 23.679 18.7511C20.6129 18.7575 17.5405 18.7511 14.468 18.7511Z" fill="#F26B35"/>
<path d="M14.4741 10.9416C12.8738 10.9416 11.2672 10.948 9.66695 10.9416C8.51478 10.9352 8.19473 10.4103 8.74521 9.431C10.3839 6.52497 12.0289 3.61894 13.6803 0.725709C14.2308 -0.240834 14.8069 -0.240834 15.3574 0.719308C17.0088 3.61894 18.6539 6.51857 20.2925 9.4246C20.8366 10.3911 20.4973 10.9352 19.3644 10.9416C17.7321 10.948 16.0999 10.9416 14.4741 10.9416Z" fill="#0593A5"/>
<path d="M0.603285 27.872C0.462464 27.872 0.328044 27.8208 0.212827 27.7247C-0.00480494 27.5391 -0.0624134 27.2447 0.0720064 26.9886L3.36209 20.7669C3.62453 20.274 4.13661 19.9668 4.69349 19.9668H9.475C9.75024 19.9668 9.98707 20.1332 10.0703 20.3957C10.1599 20.6581 10.0703 20.9333 9.85265 21.0998L0.961738 27.7503C0.852922 27.8336 0.731304 27.872 0.603285 27.872ZM4.69989 20.4725C4.32864 20.4725 3.98939 20.6773 3.81656 21.0038L0.526474 27.2255C0.50087 27.2767 0.520073 27.3151 0.545676 27.3343C0.57128 27.3535 0.609686 27.3727 0.654492 27.3407L9.54541 20.6901C9.60301 20.6453 9.59661 20.5877 9.58381 20.5621C9.57101 20.5301 9.54541 20.4789 9.475 20.4789H4.69989V20.4725Z" fill="#0593A5"/>
<path d="M28.9404 27.8725C28.8124 27.8725 28.6908 27.8341 28.582 27.7509L19.691 21.0939C19.4734 20.9275 19.3838 20.6522 19.4734 20.3898C19.563 20.1274 19.7935 19.9609 20.0687 19.9609H24.8502C25.4135 19.9609 25.9192 20.2682 26.1816 20.7611L29.4717 26.9828C29.6061 27.2388 29.5485 27.5333 29.3309 27.7189C29.2157 27.8213 29.0812 27.8725 28.9404 27.8725ZM20.0623 20.473C19.9919 20.473 19.9599 20.5242 19.9535 20.5562C19.9407 20.5882 19.9343 20.6458 19.9919 20.6842L28.8828 27.3348C28.9276 27.3668 28.966 27.354 28.9916 27.3284C29.0172 27.3092 29.0364 27.2708 29.0108 27.2196L25.7207 20.9979C25.5479 20.6714 25.2087 20.4666 24.8374 20.4666H20.0623V20.473Z" fill="#0593A5"/>
</svg>
